<?xml version="1.0" encoding="UTF-8"?>
<svg width="24px" height="24px" viewBox="0 0 24 24" version="1.1" xmlns="http://www.w3.org/2000/svg" xmlns:xlink="http://www.w3.org/1999/xlink">
    <!-- Generator: Sketch 50.2 (55047) - http://www.bohemiancoding.com/sketch -->
    <title>icon/payment-methods</title>
    <desc>Created with Sketch.</desc>
    <defs></defs>
    <g id="Page-1" stroke="none" stroke-width="1" fill="none" fill-rule="evenodd">
        <g id="Step-3-Wallet-GrabPay-by-OVO" transform="translate(-335.000000, -32.000000)">
            <g id="Header" transform="translate(0.000000, 20.000000)">
                <g id="icon/payment-methods" transform="translate(335.000000, 12.000000)">
                    <g id="Group_27" transform="translate(3.000000, 20.000000)">
                        <g id="Group_26"></g>
                    </g>
                    <g id="Group_29" transform="translate(7.000000, 20.000000)">
                        <g id="Group_28"></g>
                    </g>
                    <path d="M4.36931818,20 L3.63068182,20 C3.28236587,20 3,20.2238576 3,20.5 C3,20.7761424 3.28236587,21 3.63068182,21 L4.36931818,21 C4.71763413,21 5,20.7761424 5,20.5 C5,20.2238576 4.71763413,20 4.36931818,20 Z" id="Path_42" fill="#676767" fill-rule="nonzero"></path>
                    <path d="M8.36931818,20 L7.63068182,20 C7.28236587,20 7,20.2238576 7,20.5 C7,20.7761424 7.28236587,21 7.63068182,21 L8.36931818,21 C8.71763413,21 9,20.7761424 9,20.5 C9,20.2238576 8.71763413,20 8.36931818,20 Z" id="Path_43" fill="#676767" fill-rule="nonzero"></path>
                    <path d="M23.4494966,8.27537563 L17.630892,2.46451444 L15.7500501,0.586559301 C15.3747456,0.211014186 14.8654726,2.68875716e-16 14.3344164,0 C13.8033602,-2.68875716e-16 13.2940873,0.211014186 12.9187828,0.586559301 L4.36295296,9.12135542 L2.00089565,9.12135542 C0.895831496,9.12135542 1.35331328e-16,10.0167645 0,11.1213076 L0,22.0000478 C1.35331328e-16,23.1045909 0.895831496,24 2.00089565,24 L18.9084639,24 C20.013528,24 20.9093595,23.1045909 20.9093595,22.0000478 L20.9093595,13.6432474 L23.4524979,11.106308 C24.1836499,10.3037116 24.1823488,9.07642138 23.4494966,8.27537563 Z M13.8592037,1.52453689 C14.1206808,1.26456942 14.5431498,1.26456942 14.8046269,1.52453689 L16.2132574,2.93750314 L10.0204854,9.12135542 L6.25379935,9.12135542 L13.8592037,1.52453689 Z M18.9084639,22.6670318 L2.00089565,22.6670318 C1.82410094,22.6672978 1.65447074,22.5972172 1.52945786,22.4722633 C1.40444498,22.3473093 1.33433134,22.1777591 1.3345974,22.0010478 L1.33459664,14.4462282 L19.5737624,14.4462282 L19.5737617,22.0010478 C19.5740273,22.1775857 19.5040509,22.346984 19.3792545,22.4719091 C19.2544582,22.5968342 19.0850853,22.667032 18.9084639,22.6670318 Z M19.5747629,13.11426 L1.33759572,13.11426 L1.33759874,11.1203077 C1.33706727,10.9439427 1.40665175,10.7745902 1.53104423,10.6495062 C1.6554367,10.5244223 1.82444745,10.4538532 2.00089565,10.4533236 L18.9084639,10.4533236 C19.0852586,10.4530577 19.2548888,10.5231383 19.3799017,10.6480922 C19.5049146,10.7730461 19.5750282,10.9425963 19.5747621,11.1193077 L19.5747629,13.11426 Z M22.5050738,10.1613306 L20.9043573,11.7612924 L20.9043573,11.1233076 C20.9043573,10.0187645 20.0085258,9.12335537 18.9034616,9.12335537 L11.9053291,9.12335537 L17.1576802,3.87748069 L22.5100761,9.22035306 C22.6367425,9.34454395 22.7076096,9.51476737 22.7064783,9.69211265 C22.705347,9.86945794 22.6323139,10.0387643 22.5040734,10.1613306 L22.5050738,10.1613306 Z" id="Path_44" fill="#676767" fill-rule="nonzero"></path>
                </g>
            </g>
        </g>
    </g>
</svg>