<?xml version="1.0" encoding="UTF-8"?>
<svg width="36px" height="33px" viewBox="0 0 36 33" version="1.1" xmlns="http://www.w3.org/2000/svg" xmlns:xlink="http://www.w3.org/1999/xlink">
    <!-- Generator: Sketch 50.2 (55047) - http://www.bohemiancoding.com/sketch -->
    <title>icon/wallet-activated@2x</title>
    <desc>Created with Sketch.</desc>
    <defs>
        <path d="M7,0 C3.15,0 0,3.15 0,7 C0,10.85 3.15,14 7,14 C10.85,14 14,10.85 14,7 C14,3.15 10.85,0 7,0 Z" id="path-1"></path>
    </defs>
    <g id="Symbols" stroke="none" stroke-width="1" fill="none" fill-rule="evenodd">
        <g id="toast-success" transform="translate(-18.000000, -14.000000)">
            <g id="Notification---icon">
                <g id="icon/wallet-activated" transform="translate(16.000000, 8.000000)">
                    <g>
                        <rect id="bound" x="0" y="0" width="40" height="40"></rect>
                        <g id="ic2" transform="translate(4.000000, 7.000000)">
                            <g id="Group" transform="translate(3.000000, 0.000000)" stroke="#1C1C1C" stroke-width="1.2">
                                <path d="M0.9,3.1 L0.9,23.7 C0.9,24.6 1.6,25.2 2.5,25.2 L24.9,25.2 C26.3,25.2 27.5,24 27.5,22.6 L27.5,17.8 L28.9,17.8 C29.5,17.8 30,17.3 30,16.7 L30,12.8 C30,12.2 29.5,11.7 28.9,11.7 L27.5,11.7 L27.5,6.9 C27.5,5.5 26.3,4.3 24.9,4.3 L23.6,4.3" id="Shape"></path>
                                <path d="M30,17 C30,17.5 29.6,17.8 29.2,17.8 L21,17.8 C20.5,17.8 20.2,17.4 20.2,17 L20.2,12.6 C20.2,12.2 20.6,11.8 21,11.8 L29.2,11.8 C29.7,11.8 30,12.2 30,12.6 L30,17 Z" id="Shape"></path>
                                <path d="M2.6,0.5 L22.4,0.5 C23.1,0.5 23.7,1.1 23.7,1.9 L23.7,4.4 L2.7,4.4 C1.7,4.4 0.9,3.5 0.9,2.5 C0.8,1.4 1.6,0.5 2.6,0.5 Z" id="Shape"></path>
                            </g>
                            <g id="Group" transform="translate(0.000000, 16.000000)">
                                <g id="Shape" fill-rule="nonzero">
                                    <path stroke="#00B14F" stroke-width="1.2" d="M7,0.6 C3.48137085,0.6 0.6,3.48137085 0.6,7 C0.6,10.5186292 3.48137085,13.4 7,13.4 C10.5186292,13.4 13.4,10.5186292 13.4,7 C13.4,3.48137085 10.5186292,0.6 7,0.6 Z" stroke-linejoin="square"></path>
                                    <path stroke="#CAEFDB" stroke-width="2" d="M7,-1 C11.4022847,-1 15,2.59771525 15,7 C15,11.4022847 11.4022847,15 7,15 C2.59771525,15 -1,11.4022847 -1,7 C-1,2.59771525 2.59771525,-1 7,-1 Z"></path>
                                </g>
                                <path d="M7,0 C3.15,0 0,3.15 0,7 C0,10.85 3.15,14 7,14 C10.85,14 14,10.85 14,7 C14,3.15 10.85,0 7,0 Z" id="Shape" fill="#00B14F" fill-rule="nonzero"></path>
                                <polygon id="Path" fill="#FFFFFF" points="6.125 9.975 3.15 7 4.375 5.775 6.125 7.525 9.625 4.025 10.85 5.25"></polygon>
                            </g>
                        </g>
                    </g>
                </g>
            </g>
        </g>
    </g>
</svg>