<svg xmlns="http://www.w3.org/2000/svg" xmlns:xlink="http://www.w3.org/1999/xlink" width="375" height="244" viewBox="0 0 375 244">
    <defs>
        <path id="a" d="M0 0h375v244H0z"/>
        <linearGradient id="c" x1="-5.009%" x2="61.736%" y1="32.571%" y2="62.472%">
            <stop offset="0%" stop-color="#FEFFFF"/>
            <stop offset="100%" stop-color="#B7EECF"/>
        </linearGradient>
        <linearGradient id="d" x1="31.951%" x2="38.352%" y1="-2.202%" y2="51.43%">
            <stop offset="0%" stop-color="#FFF"/>
            <stop offset="100%" stop-color="#C7EBF0"/>
        </linearGradient>
    </defs>
    <g fill="none" fill-rule="evenodd" opacity=".572">
        <mask id="b" fill="#fff">
            <use xlink:href="#a"/>
        </mask>
        <g mask="url(#b)">
            <path fill="url(#c)" d="M544.99 240C478.725 240 425 186.283 425 120.005 425 53.717 478.726 0 544.99 0 611.266 0 665 53.717 665 120.005 665 186.283 611.267 240 544.99 240z" transform="rotate(50 392.159 -21.335)"/>
            <path fill="url(#d)" d="M375.508 301.895c-2.07 24.99-9.75 58.668-23.04 101.035-5.123-8.943-8.353-14.35-8.408-14.428-30.217-41.206-89.644-55.73-141.099-39.398-64.558 20.41-100.26 89.13-79.781 153.482 10.494 32.934 50.708 144.601 128.29 198.985 20.835 14.625 44.21 23.35 68.601 26.143 3.569.33 7.122.595 10.707.862 10.395.439 20.93-.273 31.504-1.95a80.446 80.446 0 0 0 9.03-2.53c12.603-2.998 25.165-7.497 37.516-13.589 112.927-55.697 201.37-245.782 213.152-388.391 5.6-67.867-45.033-127.422-113.098-132.998-68.023-5.54-127.762 44.895-133.374 112.777z" transform="rotate(48 401.73 -39.6)"/>
        </g>
    </g>
</svg>
