<?xml version="1.0" encoding="UTF-8"?>
<svg width="56px" height="56px" viewBox="0 0 56 56" version="1.1" xmlns="http://www.w3.org/2000/svg" xmlns:xlink="http://www.w3.org/1999/xlink">
    <!-- Generator: Sketch 50.2 (55047) - http://www.bohemiancoding.com/sketch -->
    <title>ovo-topup-graphic</title>
    <desc>Created with Sketch.</desc>
    <defs></defs>
    <g id="Symbols" stroke="none" stroke-width="1" fill="none" fill-rule="evenodd">
        <g id="card/ovo-topup" transform="translate(-16.000000, -16.000000)">
            <g id="Card">
                <g id="ovo-topup-graphic" transform="translate(16.000000, 16.000000)">
                    <g id="icon/ovo-top-up">
                        <circle id="Oval_9_" fill="#E0E6EA" fill-rule="nonzero" cx="28" cy="28" r="28"></circle>
                        <path d="M43.5,36.5 L11.3,36.5 C9.3,36.5 7.7,38.1 7.7,40.1 L7.7,47.3 C12.8,52.6 20,56 28,56 C35.4,56 42.1,53.1 47.1,48.5 L47.1,40 C47.1,38.1 45.5,36.5 43.5,36.5 Z" id="Shape" fill="#9B9EAA" fill-rule="nonzero" opacity="0.35"></path>
                        <g id="Group_9_" transform="translate(19.000000, 3.000000)" fill-rule="nonzero">
                            <path d="M29,6.1 C26.4,6.3 23.8,7.6 22.7,11.2 C20.2,19.6 17.1,20.8 13.7,24.9 C12.4,26.5 11.6,28 11.2,29.3 C11.5,29.6 11.8,29.8 12.1,30.2 C12.2,30.3 12.3,30.4 12.4,30.6 C12.8,29.2 13.5,27.5 15.1,25.7 C18.5,21.6 21.6,20.4 24.1,12 C25.1,8.7 27.4,7.3 29.8,7 C30.2,7 30.5,7 30.5,7 L29.6,6 C29.6,6 29.1,6.1 29,6.1" id="Shape_75_" fill="#E2E6E8"></path>
                            <path d="M8.4,15.8 C8,16.5 7.5,17 7,17.3 C6.3,17.8 5.9,18.5 5.8,19.4 C5.7,21.4 4.6,23 4.6,23 C5.3,23.1 6.3,25.1 7.1,26.8 C7.1,26.3 7.2,25.8 7.4,25.4 C6.9,24.5 6.4,23.8 6,23.8 C6,23.8 7.1,22.2 7.2,20.2 C7.2,19.4 7.7,18.6 8.4,18.1 C8.8,17.8 9.3,17.4 9.7,16.7 C9.7,16.6 9.6,16.6 9.6,16.5 C8.9,16 8.4,15.8 8.4,15.8" id="Shape_74_" fill="#E2E6E8"></path>
                            <path d="M27.8,4.9 C25.2,5.1 22.6,6.4 21.5,10 C19,18.4 15.9,19.6 12.5,23.7 C11,25.5 10.3,27.2 9.9,28.5 C10,28.5 10,28.6 10.1,28.6 C10.5,28.8 10.9,29 11.2,29.2 C11.6,27.9 12.4,26.4 13.7,24.8 C17.1,20.7 20.2,19.5 22.7,11.1 C23.8,7.5 26.4,6.2 29,6 C29.3,6 29.6,6 29.6,6 L28.5,4.9 C28.5,4.9 28,4.9 27.8,4.9 Z" id="Fill-17_2_" fill="#D7DBDD"></path>
                            <path d="M7.2,14.7 C6.8,15.4 6.3,15.9 5.8,16.2 C5.1,16.7 4.7,17.4 4.6,18.3 C4.5,20.3 3.4,21.9 3.4,21.9 C4.4,22 6.1,26.3 6.7,27.7 C6.8,27.9 6.8,28.2 6.8,28.4 C6.9,28.4 6.9,28.4 7,28.4 C7,28.2 7,28.1 7,27.9 C7,27.5 7,27.1 7,26.8 C6.2,25.1 5.2,23.1 4.5,23 C4.5,23 5.6,21.4 5.7,19.4 C5.7,18.6 6.2,17.8 6.9,17.3 C7.3,17 7.8,16.5 8.3,15.8 C8.3,15.8 8.8,16 9.4,16.5 C8.6,15.2 7.2,14.7 7.2,14.7" id="Fill-19_2_" fill="#D7DBDD"></path>
                            <path d="M22.9,0.7 L2.4,10.2 C2.1,10.3 1.9,10.6 1.9,10.9 L1.7,14 C1.7,14.7 1.6,15.4 1.4,16 L0.2,22.1 L5,29 C5.5,29.7 6.6,29.5 6.8,28.7 C6.9,28.4 6.9,28 6.7,27.7 C6.1,26.3 4.4,22 3.4,21.9 C3.4,21.9 4.5,20.3 4.6,18.3 C4.6,17.5 5.1,16.7 5.8,16.2 C6.2,15.9 6.7,15.4 7.2,14.7 C7.2,14.7 10.6,16.1 10.2,19.3 C9.8,22.2 7,23.3 7.1,27.9 C7.1,28.6 7.4,29.3 7.9,29.9 C8.5,30.5 9.5,30.3 9.7,29.4 C10,27.9 10.7,25.9 12.5,23.7 C15.9,19.6 19,18.4 21.5,10 C22.7,6.1 25.7,4.9 28.5,4.9 C26.8,3.3 24.9,1.9 22.9,0.7 Z" id="Shape_73_" fill="#FFFFFF"></path>
                        </g>
                        <path d="M11.9,33.8 L37.6,33.8 C38.5,33.8 39.1,34.5 39.1,35.3 L39.1,38 L11.9,38 C10.7,38 9.8,37.1 9.8,35.8 C9.8,34.8 10.7,33.8 11.9,33.8 Z" id="Shape" fill="#3D6C72" fill-rule="nonzero"></path>
                        <g id="Group_10_" transform="translate(22.000000, 25.000000)" fill-rule="nonzero">
                            <path d="M9,8.2 C10.7,10.3 10.3,13.4 8.1,15.1 C5.9,16.8 2.8,16.4 1.1,14.2 C-0.5,12 -0.1,9 2,7.3 C4.2,5.6 7.4,6 9,8.2" id="Fill-23_2_" fill="#FFD545"></path>
                            <path d="M8.3,8.8 C9.7,10.5 9.3,13 7.6,14.4 C5.8,15.7 3.3,15.4 1.9,13.7 C0.5,12 0.9,9.5 2.6,8.1 C4.4,6.7 6.9,7 8.3,8.8" id="Fill-25_2_" fill="#FFA37B"></path>
                            <path d="M7.6,9.3 C8.7,10.7 8.4,12.6 7,13.7 C5.6,14.7 3.6,14.5 2.6,13.1 C1.6,11.7 1.8,9.8 3.2,8.7 C4.5,7.7 6.5,7.9 7.6,9.3" id="Fill-27_2_" fill="#FFD545"></path>
                            <path d="M2.4,11.4 C2.4,11.5 2.3,11.5 2.4,11.4 C2.2,11.4 2.1,11.4 2.1,11.3 C2.1,10.3 2.5,9.4 3.3,8.9 C4,8.4 4.9,8.2 5.7,8.4 C5.8,8.4 5.8,8.5 5.8,8.6 C5.8,8.7 5.7,8.7 5.6,8.7 C4.8,8.5 4.1,8.7 3.4,9.2 C2.7,9.7 2.3,10.5 2.4,11.4 M2.6,12.4 C2.5,12.5 2.4,12.4 2.4,12.3 C2.4,12.2 2.3,12.1 2.3,12 C2.3,11.9 2.3,11.8 2.4,11.8 C2.5,11.8 2.6,11.8 2.6,11.9 C2.6,12 2.7,12.1 2.7,12.2 C2.7,12.2 2.6,12.3 2.6,12.4" id="Fill-29_2_" fill="#FFFFFF"></path>
                            <g id="Group-58_2_" transform="translate(3.267890, 6.002513)">
                                <g id="Group-34_2_" transform="translate(3.536669, 0.363811)" fill="#B2C39E">
                                    <path d="M0,0.2 C0.1,0.2 0.2,0.3 0.3,0.3 C0.2,0.3 0.1,0.2 0,0.2" id="Fill-32_2_"></path>
                                </g>
                                <g id="Group-40_2_" transform="translate(0.583779, 0.000000)" fill="#FFD1BD">
                                    <path d="M1.2,0.3 C0.9,0.3 0.6,0.3 0.2,0.4 C0.6,0.3 0.9,0.3 1.2,0.3 C1.8,0.3 2.4,0.4 2.9,0.7 C2.4,0.4 1.8,0.3 1.2,0.3" id="Fill-38_2_"></path>
                                </g>
                                <g id="Group-43_2_" transform="translate(0.583779, 0.000000)" fill="#FFA95F">
                                    <path d="M1.2,0.3 C0.9,0.3 0.6,0.3 0.2,0.4 C0.2,0.5 0.2,0.6 0.2,0.6 C0.2,0.8 0.2,1.1 0.3,1.3 C0.6,1.2 0.9,1.2 1.2,1.2 C1.8,1.2 2.3,1.3 2.9,1.6 C3,1.3 3.1,1 3.2,0.7 C3.1,0.6 3,0.6 3,0.6 C2.4,0.4 1.8,0.3 1.2,0.3" id="Fill-41_2_"></path>
                                </g>
                                <path d="M1.8,1.2 C1.5,1.2 1.2,1.2 0.9,1.3 C1,1.6 1.1,1.9 1.2,2.1 C1.4,2.1 1.6,2 1.8,2 C2.3,2 2.8,2.1 3.2,2.3 C3.2,2.2 3.3,2.1 3.3,2 C3.3,1.8 3.4,1.6 3.4,1.4 C3,1.3 2.4,1.2 1.8,1.2" id="Fill-44_2_" fill="#FF855B"></path>
                                <path d="M1.8,2.1 C1.6,2.1 1.4,2.1 1.2,2.2 C1.2,2.3 1.3,2.3 1.3,2.4 C1.5,2.4 1.6,2.4 1.8,2.4 C2,2.4 2.2,2.4 2.4,2.5 C2.5,2.5 2.5,2.6 2.5,2.7 C2.5,2.8 2.4,2.8 2.3,2.8 C2.2,2.6 2,2.6 1.8,2.6 C1.7,2.6 1.6,2.6 1.5,2.6 C1.7,2.8 2,2.9 2.3,2.9 C2.7,2.9 3,2.7 3.2,2.4 C2.8,2.2 2.3,2.1 1.8,2.1" id="Fill-46_2_" fill="#FFA95F"></path>
                                <path d="M1.8,2.3 C1.6,2.3 1.5,2.3 1.3,2.4 C1.4,2.5 1.4,2.7 1.5,2.8 C1.6,2.8 1.7,2.8 1.8,2.8 C2,2.8 2.2,2.8 2.3,2.9 C2.4,2.9 2.4,2.8 2.5,2.7 C2.5,2.6 2.5,2.5 2.4,2.4 C2.2,2.3 2,2.3 1.8,2.3" id="Fill-48_2_" fill="#FFD1BD"></path>
                                <g id="Group-52_2_" transform="translate(4.107334, 8.731463)" fill="#00835C">
                                    <path d="M1.2,0 C1.2,0 1.1,0 1.2,0 C1.1,0 1.2,0 1.2,0 M1.1,0 C1,0.2 0.9,0.2 0.8,0.3 C0.9,0.2 1,0.2 1.1,0 M0.6,0.4 C0.5,0.5 0.3,0.6 0.2,0.7 C0.3,0.6 0.5,0.5 0.6,0.4" id="Fill-50_2_"></path>
                                </g>
                            </g>
                            <path d="M5.5,0.9 C4.7,2 4,3.5 4.1,5.9 C4.1,6.6 4.4,7.3 4.9,7.9 C5.5,8.5 6.5,8.3 6.7,7.4 C7,5.9 7.7,3.9 9.5,1.7 C9.7,1.4 10,1.2 10.2,0.9 L5.5,0.9 Z" id="Fill-59_2_" fill="#FFFFFF"></path>
                        </g>
                        <path d="M41.1,39 L12.4,39 C12.1,39 11.4,39 10.8,38.6 L10.8,50.1 C15.5,53.8 21.5,56 28,56 C33.8,56 39.2,54.2 43.7,51.2 L43.7,41.5 C43.7,40.1 42.5,39 41.1,39 Z" id="Shape" fill="#FFFFFF" fill-rule="nonzero"></path>
                        <g id="Group" transform="translate(9.000000, 35.000000)" fill="#43C1CC" fill-rule="nonzero">
                            <path d="M0.8,0.6 L0.8,0.8 C0.8,0.7 0.8,0.7 0.8,0.6 Z" id="Shape"></path>
                            <path d="M32.1,3 L30.1,3 L2.9,3 C1.7,3 0.8,2.1 0.8,0.8 L0.8,1.7 L0.8,14.2 C1,14.3 1.1,14.5 1.3,14.6 C1.5,14.7 1.6,14.9 1.8,15 L1.8,3.6 C2.4,4 3,4 3.4,4 L32.1,4 C33.5,4 34.7,5.2 34.7,6.6 L34.7,16.3 C34.9,16.2 35,16.1 35.2,15.9 C35.4,15.7 35.5,15.7 35.7,15.5 L35.7,6.6 C35.7,4.6 34,3 32.1,3 Z" id="Shape"></path>
                        </g>
                        <g id="XMLID_103_" transform="translate(17.000000, 45.000000)" fill="#4C3392" fill-rule="nonzero">
                            <g id="XMLID_104_">
                                <g id="XMLID_105_">
                                    <g id="XMLID_106_">
                                        <g id="XMLID_107_">
                                            <g id="XMLID_108_">
                                                <g id="XMLID_109_">
                                                    <g id="XMLID_110_">
                                                        <g id="XMLID_117_">
                                                            <path d="M6,5.5 C5.4,6.1 4.6,6.4 3.8,6.4 C3,6.4 2.2,6.1 1.6,5.5 C1,4.9 0.7,4.1 0.7,3.3 C0.7,2.5 1,1.7 1.6,1.1 C2.2,0.5 3,0.2 3.8,0.2 C4.6,0.2 5.4,0.5 6,1.1 C6.6,1.7 6.9,2.5 6.9,3.3 C6.9,4.1 6.6,4.9 6,5.5 M3.8,1.2 C2.7,1.2 1.9,2.1 1.9,3.3 C1.9,4.5 2.7,5.4 3.8,5.4 C4.9,5.4 5.7,4.5 5.7,3.3 C5.7,2.1 4.9,1.2 3.8,1.2" id="XMLID_118_"></path>
                                                        </g>
                                                        <g id="XMLID_115_" transform="translate(7.000000, 0.000000)">
                                                            <path d="M6.2,0.9 L3.9,6.4 L3.7,6.4 C3.3,6.4 2.9,6.2 2.8,5.8 L0.9,1.4 L0.3,1.4 L0.3,0.4 L2.8,0.4 L2.8,1.4 L2,1.4 L3.4,4.8 L4.8,1.4 L4.2,1.4 L4.2,0.4 L6.2,0.4 L6.2,0.9 Z" id="XMLID_116_"></path>
                                                        </g>
                                                        <g id="XMLID_111_" transform="translate(13.000000, 0.000000)">
                                                            <path d="M5.8,5.5 C5.2,6.1 4.4,6.4 3.6,6.4 C2.8,6.4 2,6.1 1.4,5.5 C0.8,4.9 0.5,4.1 0.5,3.3 C0.5,2.5 0.8,1.7 1.4,1.1 C2,0.5 2.8,0.2 3.6,0.2 C4.4,0.2 5.2,0.5 5.8,1.1 C6.4,1.7 6.7,2.5 6.7,3.3 C6.7,4.1 6.4,4.9 5.8,5.5 M3.6,1.2 C2.5,1.2 1.7,2.1 1.7,3.3 C1.7,4.5 2.5,5.4 3.6,5.4 C4.7,5.4 5.5,4.5 5.5,3.3 C5.6,2.1 4.7,1.2 3.6,1.2" id="XMLID_112_"></path>
                                                        </g>
                                                    </g>
                                                </g>
                                            </g>
                                        </g>
                                    </g>
                                </g>
                            </g>
                        </g>
                        <path d="M29.9,55.9 C30.2,55.9 30.5,55.9 30.8,55.8 C31,55.8 31.2,55.7 31.4,55.7 C31.6,55.7 31.9,55.6 32.1,55.6 C32.3,55.6 32.6,55.5 32.8,55.5 C33,55.5 33.2,55.4 33.5,55.4 C33.7,55.4 34,55.3 34.2,55.2 C34.4,55.2 34.6,55.1 34.8,55.1 C35.1,55 35.3,55 35.6,54.9 C35.8,54.9 36,54.8 36.1,54.7 C36.4,54.6 36.6,54.5 36.9,54.4 C37.1,54.3 37.2,54.3 37.4,54.2 C37.7,54.1 37.9,54 38.2,53.9 C38.3,53.8 38.5,53.8 38.6,53.7 C38.9,53.6 39.2,53.5 39.4,53.3 C39.5,53.2 39.6,53.2 39.8,53.1 C40.1,53 40.4,52.8 40.7,52.7 C40.8,52.6 40.9,52.6 41,52.5 C41.3,52.3 41.6,52.2 41.9,52 C42,52 42.1,51.9 42.1,51.9 C42.4,51.7 42.7,51.5 43,51.4 C43.1,51.4 43.1,51.3 43.2,51.3 C43.5,51.1 43.8,50.9 44.1,50.7 C44.1,50.7 44.2,50.6 44.2,50.6 C44.5,50.4 44.8,50.2 45.1,49.9 C45.1,49.9 45.2,49.8 45.2,49.8 C45.5,49.6 45.8,49.3 46.1,49.1 C46.1,49.1 46.1,49.1 46.1,49.1 C46.4,48.8 46.7,48.6 47,48.3 C47,48.3 47,48.3 47,48.3 L47,43 C42.6,48.7 35.7,52.3 27.9,52.3 C19.4,52.3 11.9,47.9 7.6,41.3 L7.6,47.2 C7.9,47.5 8.2,47.9 8.6,48.2 C8.6,48.2 8.6,48.2 8.6,48.2 C8.9,48.5 9.3,48.8 9.6,49.1 C9.6,49.1 9.6,49.1 9.6,49.1 C9.9,49.4 10.3,49.7 10.6,50 C10.6,50 10.6,50 10.6,50 C10.9,50.3 11.3,50.5 11.6,50.8 C11.6,50.8 11.7,50.8 11.7,50.9 C12,51.1 12.4,51.4 12.8,51.6 C12.8,51.6 12.9,51.6 12.9,51.7 C13.2,51.9 13.6,52.1 14,52.3 C14.1,52.3 14.1,52.4 14.2,52.4 C14.5,52.6 14.9,52.8 15.2,53 C15.3,53 15.3,53.1 15.4,53.1 C15.7,53.3 16.1,53.4 16.4,53.6 C16.5,53.6 16.6,53.7 16.6,53.7 C16.9,53.8 17.3,54 17.6,54.1 C17.7,54.1 17.8,54.2 17.9,54.2 C18.2,54.3 18.6,54.4 18.9,54.5 C19,54.5 19.1,54.6 19.3,54.6 C19.6,54.7 19.9,54.8 20.3,54.9 C20.4,54.9 20.6,55 20.7,55 C21,55.1 21.3,55.2 21.6,55.2 C21.7,55.2 21.9,55.3 22,55.3 C22.3,55.4 22.6,55.4 22.9,55.5 C23.1,55.5 23.2,55.6 23.4,55.6 C23.7,55.6 24,55.7 24.4,55.7 C24.6,55.7 24.7,55.7 24.9,55.8 C25.2,55.8 25.6,55.9 25.9,55.9 C26,55.9 26.2,55.9 26.3,55.9 C26.8,55.9 27.3,55.9 27.8,55.9 C28.3,55.9 28.7,55.9 29.2,55.9 C29.6,56 29.7,55.9 29.9,55.9 Z" id="Shape" fill="#9B9EAA" fill-rule="nonzero" opacity="0.35"></path>
                    </g>
                </g>
            </g>
        </g>
    </g>
</svg>